<svg xmlns="http://www.w3.org/2000/svg" viewBox="0 0 1200 675" role="img" aria-labelledby="title desc"><title id="title">Hoevenen Beach persbeeld</title><desc id="desc">Gestileerde beachvolleybalwedstrijd op een zonnig zandveld.</desc><defs><linearGradient id="sky" x1="0" y1="0" x2="0" y2="1"><stop offset="0" stop-color="#f4bb3c"/><stop offset="1" stop-color="#eb7f28"/></linearGradient><pattern id="sand" width="36" height="36" patternUnits="userSpaceOnUse"><circle cx="7" cy="9" r="2" fill="#d49a37" opacity=".45"/><circle cx="27" cy="25" r="1.5" fill="#c27e24" opacity=".35"/></pattern></defs><rect width="1200" height="675" fill="url(#sky)"/><circle cx="975" cy="120" r="92" fill="#fff3bf" opacity=".9"/><rect y="385" width="1200" height="290" fill="#f6eed6"/><rect y="385" width="1200" height="290" fill="url(#sand)"/><path d="M120 530L600 405l480 125v75H120z" fill="none" stroke="#11110f" stroke-width="8" opacity=".65"/><path d="M600 385v220" stroke="#11110f" stroke-width="9"/><path d="M230 435h740v105H230z" fill="none" stroke="#fff" stroke-width="5" opacity=".88"/><path d="M230 455h740M230 475h740M230 495h740M230 515h740M280 435v105M330 435v105M380 435v105M430 435v105M480 435v105M530 435v105M580 435v105M630 435v105M680 435v105M730 435v105M780 435v105M830 435v105M880 435v105M930 435v105" stroke="#fff" stroke-width="2" opacity=".55"/><circle cx="525" cy="260" r="54" fill="#fff" stroke="#11110f" stroke-width="8"/><path d="M488 235c35 12 52 37 60 70M548 220c-4 34-21 57-50 74M484 279c34-12 66-9 94 12" fill="none" stroke="#eb7f28" stroke-width="12" stroke-linecap="round"/><g fill="#11110f"><circle cx="395" cy="355" r="25"/><path d="M378 382l-42 110h38l28-64 34 64h40l-55-110z"/><circle cx="770" cy="340" r="25"/><path d="M752 367l-54 118h42l35-73 30 73h42l-54-118z"/></g><text x="70" y="105" fill="#11110f" font-family="Arial Black,Arial,sans-serif" font-size="76" font-weight="900" letter-spacing="-4">HOEVENEN BEACH</text><text x="72" y="157" fill="#11110f" font-family="Arial,Helvetica,sans-serif" font-size="25" font-weight="700" letter-spacing="4">BELGIAN BEACH TOUR · 25–26 JULI 2026</text><rect x="70" y="590" width="440" height="48" rx="24" fill="#11110f"/><text x="290" y="622" text-anchor="middle" fill="#fff" font-family="Arial,Helvetica,sans-serif" font-size="20" font-weight="700" letter-spacing="2">PERSBEELD · HOEVENEN</text></svg>