<?xml version="1.0" encoding="UTF-8"?>
<svg id="uuid-b1b30bcf-b8b9-425b-a961-01904a28030b" xmlns="http://www.w3.org/2000/svg" version="1.1" viewBox="0 0 454.09 397.44">
  <defs><style>.st0 { fill: #fff; }</style></defs>
  <path class="st0" d="M409.06,286.57L454.09.02c.1-.65-25.56,11.64-25.56,11.64-14.31,94.66-29.53,180.26-43.44,274.9h23.97Z"/>
  <path class="st0" d="M44.04,133.62l-2.68,16.83c-7.07,0-14.02.45-20.68.17l-1.02,7.06c6.68.33,13.5.52,20.45.58l-3.1,19.52c-6.87-.38-13.57-.68-20.06-1.34l-.99,6.89c6.58.6,13.18,1.35,19.9,1.72l-3.17,19.95c-6.57-.58-13.12-1.07-19.59-1.83l-.97,6.74,19.25,2.22-2.3,13.5c2.36.29,4.93.62,7.33.89l2.37-13.76c10.39.82,20.85,1.39,31.35,1.76l-2.28,14.8c2.37.18,4.6.52,7,.69l2.59-15.27c7.43.19,14.86.27,22.28.27,4.06,0,8.12-.02,12.18-.08l-2.87,16.91,7.25.24,3.05-17.28c11.67-.25,23.26-.71,34.71-1.34l-3.73,19.15c2.92,0,5.84,0,8.78-.03l3.72-19.64c12.43-.78,24.66-1.76,36.61-2.88l-4.19,21.73c2.71-.1,5.44-.21,8.16-.33l4.29-22.21c13.06-1.31,25.74-2.79,37.91-4.36l-4.84,24.38c2.99-.22,5.97-.45,8.94-.69l4.82-24.86c13.5-1.83,26.3-3.77,38.2-5.7l-5.17,26.87c2.66-.3,5.31-.62,7.95-.94l5.32-27.27c14.81-2.5,28.05-4.96,39.32-7.18-.37,1.93-.72,3.77-1.05,5.53-1.1,5.8-3.42,17.06-4.73,23.47,2.87-.46,5.73-.93,8.56-1.41,1.07-5.87,3.05-16.28,5.54-29.26,20.54-4.19,32.69-7.19,33.1-7.29l2.08-9.77c-.47.12-12.78,3.2-33.35,7.53,1.96-10.18,4.14-21.46,6.4-33.11,20.13-4.82,32.6-8.12,33.36-8.31l2.08-10.77c-.72.18-13.17,3.66-33.44,8.74,2.22-11.44,4.47-23.01,6.62-34.04,17.14-5.27,29.2-9.34,34.24-11.2l1.5-9.92c-1.06.26-13.52,4.3-33.64,10.33,2.57-13.21,4.91-25.23,6.77-34.78,11.44-4.63,23.03-9.5,34.82-14.64l.96-5.65,2.69-15.78c-8.91,4.18-17.73,8.24-26.52,12.18-75.67,33.98-149.26,59.74-260.63,80.92-30.73,5.84-64.35,11.34-101.66,16.56l-.96,6.64c7.14-.58,14.2-1.19,21.17-1.84h0ZM71.36,207.13c-10.53-.38-20.96-1.01-31.23-1.91l3.55-19.7c10.12.57,20.4.85,30.81.85h.35s-3.48,20.76-3.48,20.76ZM113.16,207.46c-3.79.07-7.57.1-11.35.12-7.72.04-15.41-.03-23.07-.23l3.68-20.91c8.16,0,16.62-.21,25.29-.62,3.04-.14,6.11-.31,9.2-.5l-3.75,22.14ZM155.55,205.7c-11.56.73-23.22,1.28-34.9,1.59l3.97-22.49c11.65-.85,23.59-2,35.65-3.38l-4.73,24.27h0ZM201,201.89c-12.02,1.24-24.29,2.33-36.7,3.22l4.69-24.72c12.37-1.52,24.81-3.27,37.16-5.17l-5.15,26.67h0ZM247.31,196.27c-12.24,1.7-24.96,3.3-38.02,4.74l5.24-27.1c13.09-2.1,26.01-4.35,38.54-6.67l-5.76,29.03h0ZM294.46,188.94c-11.95,2.05-24.77,4.1-38.25,6.06l5.71-29.42c13.46-2.56,26.4-5.17,38.53-7.74l-5.99,31.1ZM341.93,180.02c-11.31,2.31-24.57,4.88-39.34,7.5l6.13-31.44c14.71-3.16,28.07-6.2,39.51-8.89-2.39,12.42-4.5,23.4-6.3,32.83h0ZM324.72,74.07c13.39-4.76,26.91-9.85,40.63-15.29-1.5,7.72-3.83,19.73-6.56,33.8-11.53,3.41-25.01,7.29-39.9,11.4,0,0,5.83-29.91,5.83-29.91ZM356.69,103.43c-1.99,10.3-4.12,21.31-6.24,32.29-.08.42-.16.83-.24,1.24-11.44,2.82-24.8,6-39.57,9.32l6.12-31.37c14.84-4.07,28.31-7.98,39.93-11.48ZM276.59,89.96c13.07-3.97,26.18-8.24,39.41-12.82l-5.62,29.17c-12.24,3.32-25.3,6.76-38.94,10.18l5.15-26.53ZM308.27,117.22l-5.95,30.92c-12.13,2.67-25.08,5.41-38.59,8.09l5.63-29.02c13.63-3.33,26.68-6.7,38.91-9.99ZM228.16,103.4c13.27-3.33,26.49-6.93,39.73-10.83l-5.18,26.09c-12.73,3.13-25.89,6.23-39.28,9.2l4.73-24.46h0ZM260.59,129.33l-5.68,28.63c-12.53,2.42-25.48,4.78-38.65,6.98l5.18-26.8c13.37-2.82,26.48-5.78,39.15-8.8h0ZM181.59,113.95c12.77-2.59,25.42-5.39,38.01-8.44l-4.67,24.21c-12.49,2.7-25.14,5.26-37.77,7.62l4.44-23.39h0ZM212.97,139.89l-5.1,26.42c-12.31,1.99-24.78,3.82-37.24,5.45l4.7-24.77c12.64-2.18,25.24-4.57,37.64-7.1h0ZM135.68,122.25c12.63-2.02,25.08-4.21,37.4-6.61l-4.53,23.27c-12.38,2.21-24.72,4.21-36.86,5.91,0,0,3.99-22.57,3.99-22.57ZM166.7,148.44l-4.75,24.42c-12.04,1.47-24.04,2.72-35.86,3.69l4.03-22.8c12.13-1.51,24.36-3.3,36.58-5.31ZM92.65,128.35c10.2-1.28,20.24-2.65,30.17-4.13,1.53-.23,3.06-.45,4.58-.68l-3.79,22.38c-2.02.26-4.02.51-6.03.75-9.75,1.19-19.34,2.19-28.66,2.91l3.74-21.23h0ZM115.44,155.44c2.22-.24,4.44-.47,6.67-.73l-3.81,22.44c-2.84.2-5.66.39-8.47.56-8.85.53-17.56.89-26.06,1.04l3.68-20.88c9.19-.6,18.54-1.42,27.99-2.43ZM53.2,132.74c10.58-1.04,20.97-2.17,31.21-3.39l-3.49,20.79c-10.77.68-21.16,1-31.02.88l3.3-18.28h0ZM48.47,158.99c10.05.13,20.44-.11,31.08-.66l-3.44,20.5c-10.77.02-21.16-.31-31.03-1.06l3.38-18.77h0Z"/>
  <path class="st0" d="M.24,245.69h13.16c4.68,0,9.57.76,13.16,3.1,3.93,2.55,5.85,6.41,5.85,10.81,0,3.72-2.07,7.3-5.51,8.96,4.41,1.58,7.58,5.92,7.58,10.81,0,5.79-3.58,10.33-8.95,12.6-3.65,1.52-8.33,1.93-12.67,1.93H.24v-48.21ZM11.4,264.91h2c5.1,0,7.85-1.65,7.85-4.96,0-2-.69-3.24-1.72-4-1.58-1.1-4.06-1.1-6.75-1.1h-1.38s0,10.06,0,10.06ZM16.01,273.72h-4.61v11.02h1.72c2.55,0,5.3,0,7.16-.96,1.45-.76,2.34-2,2.34-4.2,0-3.65-2.27-5.85-6.61-5.85h0Z"/>
  <path class="st0" d="M42.74,293.91v-48.21h31.68v9.23h-20.53v9.57h20.53v9.23h-20.53v10.95h20.53v9.23h-31.68,0Z"/>
  <path class="st0" d="M82.68,293.91v-48.21h11.16v38.99h19.29v9.23h-30.45Z"/>
  <path class="st0" d="M139.1,274.9v-9.23h22.45v19.01c-5.23,7.09-13.02,10.06-21.49,10.06-14.53,0-25.62-10.19-25.62-24.93s11.43-24.93,25.55-24.93c8.47,0,15.36,3.38,20.94,9.85l-7.71,6.75c-3.31-4-7.71-6.96-13.16-6.96-7.99,0-13.78,6.82-13.78,15.29,0,8.89,5.3,15.29,13.71,15.29,3.51,0,7.51-1.52,10.4-4.27v-5.92h-11.3.01Z"/>
  <path class="st0" d="M170.57,293.91v-48.21h11.16v48.21h-11.16Z"/>
  <path class="st0" d="M221.82,293.91l-2.82-8.47h-15.91l-3.03,8.47h-12.33l20.04-48.21h8.89l17.98,48.21h-12.82ZM206.32,276.55h9.64l-4.62-13.91h-.07l-4.96,13.91h.01Z"/>
  <path class="st0" d="M272.17,293.91l-20.39-27.96v27.96h-11.16v-48.21h9.85l20.6,28.1v-28.1h11.16v48.21h-10.06Z"/>
  <path class="st0" d="M.24,303.69h13.16c4.68,0,9.57.76,13.16,3.1,3.93,2.55,5.85,6.41,5.85,10.81,0,3.72-2.07,7.3-5.51,8.96,4.41,1.58,7.58,5.92,7.58,10.81,0,5.79-3.58,10.33-8.95,12.6-3.65,1.52-8.33,1.93-12.67,1.93H.24v-48.21ZM11.4,322.91h2c5.1,0,7.85-1.65,7.85-4.96,0-2-.69-3.24-1.72-4-1.58-1.1-4.06-1.1-6.75-1.1h-1.38s0,10.06,0,10.06ZM16.01,331.72h-4.61v11.02h1.72c2.55,0,5.3,0,7.16-.96,1.45-.76,2.34-2,2.34-4.2,0-3.65-2.27-5.85-6.61-5.85h0Z"/>
  <path class="st0" d="M42.74,351.91v-48.21h31.68v9.23h-20.53v9.57h20.53v9.23h-20.53v10.95h20.53v9.23h-31.68,0Z"/>
  <path class="st0" d="M113.68,351.91l-2.82-8.47h-15.91l-3.03,8.47h-12.33l20.04-48.21h8.89l17.98,48.21h-12.82ZM98.18,334.55h9.64l-4.61-13.91h-.07l-4.96,13.91Z"/>
  <path class="st0" d="M164.72,316.57c-2.89-2.41-6.34-4.06-10.12-4.06-7.99,0-13.78,6.82-13.78,15.29,0,8.89,4.89,15.29,13.71,15.29,3.65,0,7.37-1.58,10.12-4.2l6.34,7.99c-4.96,3.86-10.75,5.85-16.94,5.85-14.53,0-25.07-10.4-25.07-24.93s11.43-24.93,25.55-24.93c5.85,0,10.47,1.86,15.57,5.1l-5.37,8.61h-.01Z"/>
  <path class="st0" d="M206.87,351.91v-20.18h-18.46v20.18h-11.16v-48.21h11.16v18.8h18.46v-18.8h11.16v48.21h-11.16Z"/>
  <path class="st0" d="M262.73,312.92v38.99h-11.16v-38.99h-11.16v-9.23h33.47v9.23h-11.16.01Z"/>
  <path class="st0" d="M301.3,352.73c-14.4,0-25.42-11.16-25.42-24.93s11.02-24.93,25.42-24.93,25.42,11.16,25.42,24.93-11.02,24.93-25.42,24.93ZM301.3,312.51c-7.85,0-13.57,6.75-13.57,15.29s5.72,15.29,13.57,15.29,13.57-6.75,13.57-15.29-5.72-15.29-13.57-15.29Z"/>
  <path class="st0" d="M354.27,352.73c-13.71,0-19.56-8.4-19.56-23.56v-25.49h11.16v26.66c0,8.61,3.31,12.74,8.54,12.74s8.54-4.13,8.54-12.74v-26.66h11.16v25.49c0,15.15-5.86,23.56-19.84,23.56h0Z"/>
  <path class="st0" d="M383.89,303.69h15.7c7.92,0,18.05,4.06,18.05,14.67,0,7.23-4.75,11.37-9.99,13.43,4.27,5.92,11.3,15.7,14.53,20.11h-13.91l-12.74-18.8h-.48v18.8h-11.16v-48.21h0ZM395.05,323.87h2.96c4.48,0,7.78-1.58,7.78-5.3,0-3.38-2.62-5.65-6.47-5.65h-4.27v10.95h0Z"/>
  <path class="st0" d="M3.56,384.92l1.32-6.53h-2.51v-4.8h3.47l1.42-7.17h5.53l-1.46,7.17h5.85l1.46-7.17h5.53l-1.46,7.17h2.88v4.8h-3.84l-1.32,6.53h2.79v4.8h-3.75l-1.42,7.17h-5.53l1.42-7.17h-5.85l-1.42,7.17H1.19l1.42-7.17H0v-4.8h3.56ZM9.05,384.92h5.85l1.32-6.53h-5.85s-1.32,6.53-1.32,6.53Z"/>
  <path class="st0" d="M28.6,364.91h10.42c5.25,0,11.97,2.7,11.97,9.73,0,4.8-3.15,7.54-6.62,8.91,2.83,3.93,7.49,10.42,9.64,13.34h-9.23l-8.45-12.47h-.32v12.47h-7.4v-31.98h-.01ZM36,378.3h1.96c2.97,0,5.16-1.05,5.16-3.52,0-2.24-1.74-3.75-4.29-3.75h-2.83v7.26h0Z"/>
  <path class="st0" d="M72.24,397.44c-9.55,0-16.86-7.4-16.86-16.54s7.31-16.54,16.86-16.54,16.86,7.4,16.86,16.54-7.31,16.54-16.86,16.54ZM72.24,370.76c-5.21,0-9,4.48-9,10.14s3.79,10.14,9,10.14,9-4.48,9-10.14-3.79-10.14-9-10.14Z"/>
  <path class="st0" d="M113.36,396.89l-1.87-5.62h-10.55l-2.01,5.62h-8.18l13.29-31.98h5.89l11.92,31.98h-8.5.01ZM103.08,385.38h6.4l-3.06-9.23h-.05l-3.29,9.23Z"/>
  <path class="st0" d="M125.83,364.91h9.59c8.31,0,17.68,4.29,17.68,15.85s-9.23,16.13-18.09,16.13h-9.18s0-31.98,0-31.98ZM133.23,390.77h.41c6.85,0,11.6-2.6,11.6-9.59,0-6.62-3.88-10.14-10.55-10.14h-1.46v19.74h0Z"/>
  <path class="st0" d="M169.24,371.04v25.86h-7.4v-25.86h-7.4v-6.12h22.2v6.12h-7.4Z"/>
  <path class="st0" d="M194.83,397.44c-9.55,0-16.86-7.4-16.86-16.54s7.31-16.54,16.86-16.54,16.86,7.4,16.86,16.54-7.31,16.54-16.86,16.54ZM194.83,370.76c-5.21,0-9,4.48-9,10.14s3.79,10.14,9,10.14,9-4.48,9-10.14-3.79-10.14-9-10.14Z"/>
  <path class="st0" d="M238.41,396.89h-5.3l-8.73-22.11v22.11h-7.4v-31.98h10.69l8.18,21.29,8.5-21.29h10.42v31.98h-7.4v-21.93l-8.96,21.93Z"/>
  <path class="st0" d="M281.36,396.89l-1.87-5.62h-10.55l-2.01,5.62h-8.18l13.29-31.98h5.89l11.92,31.98h-8.5,0ZM271.09,385.38h6.4l-3.06-9.23h-.05l-3.29,9.23Z"/>
  <path class="st0" d="M304.62,370.58c-1.69,0-3.47.91-3.47,2.74,0,2.33,2.88,2.88,4.93,3.61,4.52,1.55,10.05,3.65,10.05,10.64s-6.58,9.87-12.43,9.87c-5.03,0-8.95-2.01-12.47-5.57l4.8-4.71c2.47,2.28,4.34,4.07,7.77,4.07,2.24,0,4.48-1.05,4.48-3.52s-2.97-3.52-5.85-4.57c-4.25-1.6-8.68-3.61-8.68-9.78s5.44-8.95,10.78-8.95c4.2,0,7.49,1.37,10.87,3.93l-4.16,5.21c-1.87-1.55-4.16-2.97-6.62-2.97h0Z"/>
  <path class="st0" d="M333.18,371.04v25.86h-7.4v-25.86h-7.4v-6.12h22.2v6.12h-7.4Z"/>
  <path class="st0" d="M344.01,396.89v-31.98h21.02v6.12h-13.61v6.35h13.61v6.12h-13.61v7.26h13.61v6.12h-21.02Z"/>
  <path class="st0" d="M370.51,364.91h10.42c5.25,0,11.97,2.7,11.97,9.73,0,4.8-3.15,7.54-6.62,8.91,2.83,3.93,7.49,10.42,9.64,13.34h-9.23l-8.45-12.47h-.32v12.47h-7.4v-31.98h-.01ZM377.91,378.3h1.96c2.97,0,5.16-1.05,5.16-3.52,0-2.24-1.74-3.75-4.29-3.75h-2.83v7.26h0Z"/>
  <path class="st0" d="M410.85,370.58c-1.69,0-3.47.91-3.47,2.74,0,2.33,2.88,2.88,4.93,3.61,4.52,1.55,10.05,3.65,10.05,10.64s-6.58,9.87-12.43,9.87c-5.03,0-8.95-2.01-12.47-5.57l4.8-4.71c2.47,2.28,4.34,4.07,7.77,4.07,2.24,0,4.48-1.05,4.48-3.52s-2.97-3.52-5.85-4.57c-4.25-1.6-8.68-3.61-8.68-9.78s5.44-8.95,10.78-8.95c4.2,0,7.49,1.37,10.87,3.93l-4.16,5.21c-1.87-1.55-4.16-2.97-6.62-2.97h0Z"/>
</svg>
