<svg xmlns="http://www.w3.org/2000/svg" viewBox="0 0 170.5 148"><defs><style>.a{fill:#fff;}</style></defs><path class="a" d="M31,31H44.3a23.17,23.17,0,0,1,9.8,1.9,22.52,22.52,0,0,1,7,4.9,20.33,20.33,0,0,1,4.2,6.9,23.56,23.56,0,0,1,0,16,18.87,18.87,0,0,1-4.2,6.9,20,20,0,0,1-7,4.9,23.17,23.17,0,0,1-9.8,1.9H31Zm4.2,39.5h8.2a21.67,21.67,0,0,0,7.4-1.2,16.52,16.52,0,0,0,5.9-3.5,16.11,16.11,0,0,0,3.9-5.6A17.76,17.76,0,0,0,62,52.8a19.67,19.67,0,0,0-1.3-7.5,14.67,14.67,0,0,0-3.8-5.6,17,17,0,0,0-5.8-3.5A22.68,22.68,0,0,0,43.6,35H35l.2,35.5Z"/><path class="a" d="M74.2,31c1.6,0,3.3,0,5-.1a47.31,47.31,0,0,1,5.3.1,26.2,26.2,0,0,1,5,.7,11.53,11.53,0,0,1,4.2,1.9,9.11,9.11,0,0,1,2.9,3.5,13,13,0,0,1,1.1,5.6,10.79,10.79,0,0,1-1.3,5.4,9,9,0,0,1-3.9,3.8,11.93,11.93,0,0,1,5.1,3,10.64,10.64,0,0,1,3.1,9.7,9.62,9.62,0,0,1-2.2,4.8A11.93,11.93,0,0,1,93.7,73a18.09,18.09,0,0,1-7.4,1.4H74.2Zm17.6,6.8a7.53,7.53,0,0,0-3.7-2.3,15.06,15.06,0,0,0-4.8-.6h-5V50.5h4.8a15.28,15.28,0,0,0,4.9-.7,8.66,8.66,0,0,0,3.8-2.3,6.9,6.9,0,0,0,1.5-4.8h.1A9.16,9.16,0,0,0,91.8,37.8ZM78.3,70.5c1,0,2.1,0,3.3.1s2.6,0,3.9,0a26,26,0,0,0,3.9-.5,15,15,0,0,0,3.4-1.2,5.89,5.89,0,0,0,2.4-2.3,7,7,0,0,0,.9-3.7,9.17,9.17,0,0,0-.8-4A7.22,7.22,0,0,0,93,56.3a9.68,9.68,0,0,0-3.3-1.4,15.83,15.83,0,0,0-3.8-.5c-1.3-.1-2.7-.1-4-.1s-2.5.1-3.7.1l.1,16.1Z"/><path class="a" d="M123.9,75.1h-.8L104,31.1l4.3-.6,15.3,35.3,15.6-35.3,4.4.6Z"/><path class="a" d="M44.2,116.2H31V93.1H43.7l.2,2.1H33.2v8.3H43v2.1H33.2v8.6H44.4Z"/><path class="a" d="M56.8,116.6h-.4L46.2,93.1l2.3-.3,8.1,18.8,8.3-18.8,2.3.3Z"/><path class="a" d="M82.2,116.2H69V93.1H81.7l.2,2.1H71.2v8.3H81v2.1H71.2v8.6H82.4Z"/><path class="a" d="M106.3,116.5h-1l-16.1-19V116l-2.2.2V92.8l1-.1c2.6,3.2,5.3,6.4,8,9.5s5.4,6.3,8,9.5V93l2.2-.2C106.3,92.8,106.3,116.5,106.3,116.5Z"/><path class="a" d="M119,95.1V116l-2.2.2v-21h-7.5l.3-2.1h16.7v2.1l-7.3-.1Z"/><path class="a" d="M129.2,111.5a12.66,12.66,0,0,0,2.5,2.1,5.7,5.7,0,0,0,4.9.6,3.77,3.77,0,0,0,1.5-.9,3.59,3.59,0,0,0,1-1.4,5.26,5.26,0,0,0,.4-1.8,3.46,3.46,0,0,0-.8-2.4,8,8,0,0,0-2.1-1.5,16.93,16.93,0,0,0-2.7-1,11.07,11.07,0,0,1-2.7-1.2,7.56,7.56,0,0,1-2.1-1.9,5.07,5.07,0,0,1-.8-3.2A5.66,5.66,0,0,1,129,96a4.94,4.94,0,0,1,1.8-2,8.3,8.3,0,0,1,2.5-1.2,13.33,13.33,0,0,1,2.8-.3,9.59,9.59,0,0,1,2.8.7,6.34,6.34,0,0,1,2.3,1.6l-.7,2a9.13,9.13,0,0,0-2.3-1.5,6,6,0,0,0-2.7-.6,5.66,5.66,0,0,0-1.8.3,3.61,3.61,0,0,0-1.5.8,4.12,4.12,0,0,0-1,1.3,3.42,3.42,0,0,0-.4,1.8,3.2,3.2,0,0,0,.8,2.3,6.43,6.43,0,0,0,2.1,1.4,16.93,16.93,0,0,0,2.7,1,11.07,11.07,0,0,1,2.7,1.2,7.56,7.56,0,0,1,2.1,1.9,5.39,5.39,0,0,1,.8,3.3,6.57,6.57,0,0,1-.7,3.2,6.74,6.74,0,0,1-1.9,2.2,8.08,8.08,0,0,1-2.7,1.1,10.07,10.07,0,0,1-3,.1,7.71,7.71,0,0,1-2.9-1,7.91,7.91,0,0,1-2.4-2.1Z"/><path class="a" d="M164.5,6V142H6V6H164.5m6-6H0V148H170.5V0Z"/></svg>