<?xml version="1.0" encoding="UTF-8"?>
<svg id="Layer_1" xmlns="http://www.w3.org/2000/svg" version="1.1" xmlns:xlink="http://www.w3.org/1999/xlink" viewBox="0 0 308.55 191.43">
  <!-- Generator: Adobe Illustrator 30.6.0, SVG Export Plug-In . SVG Version: 2.1.4 Build 109)  -->
  <defs>
    <style>
      .st0 {
        clip-path: url(#clippath-6);
      }

      .st1 {
        clip-path: url(#clippath-7);
      }

      .st2 {
        clip-path: url(#clippath-4);
      }

      .st3 {
        stroke-width: .4px;
      }

      .st3, .st4, .st5 {
        stroke: #fff;
      }

      .st3, .st4, .st5, .st6 {
        stroke-miterlimit: 10;
      }

      .st3, .st5, .st7 {
        fill: none;
      }

      .st8 {
        clip-path: url(#clippath-9);
      }

      .st9 {
        clip-path: url(#clippath-10);
      }

      .st4, .st10 {
        fill: #fff;
      }

      .st11 {
        clip-path: url(#clippath-11);
      }

      .st12 {
        clip-path: url(#clippath-1);
      }

      .st13 {
        clip-path: url(#clippath-5);
      }

      .st14 {
        clip-path: url(#clippath-8);
      }

      .st6 {
        stroke: #fbb03f;
      }

      .st6, .st15 {
        fill: #fbb040;
      }

      .st16 {
        clip-path: url(#clippath-3);
      }

      .st17 {
        clip-path: url(#clippath-12);
      }

      .st18 {
        clip-path: url(#clippath-14);
      }

      .st19 {
        clip-path: url(#clippath-2);
      }

      .st20 {
        clip-path: url(#clippath-13);
      }

      .st21 {
        clip-path: url(#clippath);
      }
    </style>
    <clipPath id="clippath">
      <path class="st7" d="M55.05,43.56c17.78,0,32.2,13.04,32.2,30.82,0,21.47-14.42,32.2-32.2,32.2s-32.2-13.04-32.2-30.82,14.42-32.2,32.2-32.2Z"/>
    </clipPath>
    <clipPath id="clippath-1">
      <path class="st7" d="M55.05,43.56c17.78,0,32.2,13.04,32.2,30.82,0,21.47-14.42,32.2-32.2,32.2s-32.2-13.04-32.2-30.82,14.42-32.2,32.2-32.2Z"/>
    </clipPath>
    <clipPath id="clippath-2">
      <path class="st7" d="M55.05,43.56c17.78,0,32.2,13.04,32.2,30.82,0,21.47-14.42,32.2-32.2,32.2s-32.2-13.04-32.2-30.82,14.42-32.2,32.2-32.2Z"/>
    </clipPath>
    <clipPath id="clippath-3">
      <path class="st7" d="M55.05,43.56c17.78,0,32.2,13.04,32.2,30.82,0,21.47-14.42,32.2-32.2,32.2s-32.2-13.04-32.2-30.82,14.42-32.2,32.2-32.2Z"/>
    </clipPath>
    <clipPath id="clippath-4">
      <path class="st7" d="M55.05,43.56c17.78,0,32.2,13.04,32.2,30.82,0,21.47-14.42,32.2-32.2,32.2s-32.2-13.04-32.2-30.82,14.42-32.2,32.2-32.2Z"/>
    </clipPath>
    <clipPath id="clippath-5">
      <path class="st7" d="M55.05,43.56c17.78,0,32.2,13.04,32.2,30.82,0,21.47-14.42,32.2-32.2,32.2s-32.2-13.04-32.2-30.82,14.42-32.2,32.2-32.2Z"/>
    </clipPath>
    <clipPath id="clippath-6">
      <path class="st7" d="M55.05,43.56c17.78,0,32.2,13.04,32.2,30.82,0,21.47-14.42,32.2-32.2,32.2s-32.2-13.04-32.2-30.82,14.42-32.2,32.2-32.2Z"/>
    </clipPath>
    <clipPath id="clippath-7">
      <path class="st7" d="M55.05,43.56c17.78,0,32.2,13.04,32.2,30.82,0,21.47-14.42,32.2-32.2,32.2s-32.2-13.04-32.2-30.82,14.42-32.2,32.2-32.2Z"/>
    </clipPath>
    <clipPath id="clippath-8">
      <path class="st7" d="M55.05,43.56c17.78,0,32.2,13.04,32.2,30.82,0,21.47-14.42,32.2-32.2,32.2s-32.2-13.04-32.2-30.82,14.42-32.2,32.2-32.2Z"/>
    </clipPath>
    <clipPath id="clippath-9">
      <path class="st7" d="M55.05,43.56c17.78,0,32.2,13.04,32.2,30.82,0,21.47-14.42,32.2-32.2,32.2s-32.2-13.04-32.2-30.82,14.42-32.2,32.2-32.2Z"/>
    </clipPath>
    <clipPath id="clippath-10">
      <path class="st7" d="M55.05,43.56c17.78,0,32.2,13.04,32.2,30.82,0,21.47-14.42,32.2-32.2,32.2s-32.2-13.04-32.2-30.82,14.42-32.2,32.2-32.2Z"/>
    </clipPath>
    <clipPath id="clippath-11">
      <path class="st7" d="M55.05,43.56c17.78,0,32.2,13.04,32.2,30.82,0,21.47-14.42,32.2-32.2,32.2s-32.2-13.04-32.2-30.82,14.42-32.2,32.2-32.2Z"/>
    </clipPath>
    <clipPath id="clippath-12">
      <path class="st7" d="M55.05,43.56c17.78,0,32.2,13.04,32.2,30.82,0,21.47-14.42,32.2-32.2,32.2s-32.2-13.04-32.2-30.82,14.42-32.2,32.2-32.2Z"/>
    </clipPath>
    <clipPath id="clippath-13">
      <path class="st7" d="M55.05,43.56c17.78,0,32.2,13.04,32.2,30.82,0,21.47-14.42,32.2-32.2,32.2s-32.2-13.04-32.2-30.82,14.42-32.2,32.2-32.2Z"/>
    </clipPath>
    <clipPath id="clippath-14">
      <path class="st7" d="M55.05,43.56c17.78,0,32.2,13.04,32.2,30.82,0,21.47-14.42,32.2-32.2,32.2s-32.2-13.04-32.2-30.82,14.42-32.2,32.2-32.2Z"/>
    </clipPath>
  </defs>
  <path class="st15" d="M57.05,9.66V.86c0-.5.7-.6.9-.1l.8,2.5c.1.3.6.3.7,0l.7-1.8c.2-.5.9-.4.9.2v2.3c0,.1.1.1.1,0l1.6-3.6c.3-.6,1.1-.4,1.2.2l.2,3.3c0,.1.1.1.2,0l1.1-3c.2-.4.7-.3.7.2l-.4,6c0,.2.1.3.3.2l4.2-1.8c.5-.2.8.4.5.7-4.3,5.6-17.2,15.3-20.3,22.1v.2c.6.4,3,2.2,4.6,2.7.07,0,.1-.03.1-.1.3-4.4,1.4-12.6,11.1-17.3.5-.3,1.5-.5,2.1-.4,3,.1,6,.9,6.6,1.1h.2c.3-.2,1.1-.6,1.5-1,.1-.1.4-.2.6-.1.7.5.3.8,1,2.3.4,1.4,5.8,5.1,5.8,5.1l1.7,1.1c.7.5.9,1.4.5,2.1l-2.5,4.5c-1.4,2.4.1,5.5,2.9,5.8,1.4.1,3.3-.4,5.7-1.3,9.5-3.9,12.3-1,17.8-.5h.2c2.7,0,9.8-1.5,17.7-3.4,10.9-1.6,22.9-2.8,25-3,.2,0,.4-.1.6-.2l4.2-1.9c.3-.2.7-.2,1.1-.2l4.9.7,7.5-3.5c.5-.2,1,.5.5.8l-5,4.4,3.6.3c1.6.2,1.7,2.5.1,2.8l-7.1.5c-.7,0-.7,1-.1,1.1l2.2.4c.9.2.9,1.5,0,1.8-1.9.5-4.3.6-5.5.5-2.5-.2-6.6-.9-9.6-.9-3.8-.7-22.1,6.6-28.6,5.8h-.3c-4.3.3-16.6,3.9-18.7,4.6-.2,0-.2.2-.2.4.6,1.1,2.6,5.8,2.3,7.8-.4,2.1.2,8.1.2,9.1v.3c.3,1.4,3.4,14,2.9,19.8-.5,5.6-3.9,20.3-4.5,23-.1.3-.1.6-.1.9.3,3,1.4,18.8-4.9,39.6-.2.7-.6,1.4-1.1,1.9-6.8,7.5-32.5,19.8-35.3,23.1-2.5,3.1-10,12.6-14.9,15.9-2.3,1.6-4.4,4.1-6,6.3-.4.6-1.3.1-1-.5,1.2-3.6,2.9-8.7,4.7-13.6.2-.5.2-1.1.1-1.6-.9-4.3-.4-7.7,1-7.9s5.8-.9,6.8-1.7,18.9-19,21.5-20.2c2.3-1,9.5-4.6,11.1-5.4.2-.1.3-.3.3-.5l-.4-9.3c0-.1-.2-.2-.2-.1-1.5,2-9.8,13.1-12.3,14.1-2.7,1-40.3,9.2-41.2,10s-18.3,9.5-24.2,9.5c-1.6,0-3.1.8-3.8,1.3-.3.2-.7.2-1-.1l-2.2-2.2c-.5-.5-.6-1.2-.2-1.8l.9-1.2c.5-.6,1.2-.6,2-.5,0,0,1.7-1.2,2-1.5,2.2-2,9.1-8.6,11.6-13.2.3-.5.8-.7,1.3-.5,3.2,1,4.1,4.4,6.9,2.8,5.3-3,22.6-13.7,33.4-14.5,7.4-.5,9.5-5.2,10.5-8.9,1.5-4.9,6.5-14.1,6.5-16.1,0-2.1,1.8-14.3,3.1-16.2,1.3-2,6.1-11.4,6.1-11.4,0,0,.7-1.6-.4-3.7-1-1.9-3.7-9-5.6-12.3-.6-1-1.5-3.3-2.7-3.6-.9-.2-2.5-1.9-2.7-2.1-.4-.3-6.3-5.4-12.8-9.3-5.9-3.5-10.6-4-19.3-16.5-.1-.1-.2-.3-.2-.4-.7-1.8-.4-4.4.8-6,5.5-7.1,11-13.3,14.6-15.2.6-.2.8-.7.8-1.2h0Z"/>
  <path class="st4" d="M93.65,77.78v-24.3h-4.1v-4.8h12.9v4.8h-4.1v24.3h-4.7Z"/>
  <path class="st4" d="M116.95,75.88c-.4.9-1.1,1.5-1.9,1.9-.8.3-2,.5-3.6.5s-2.8-.2-3.6-.5c-.8-.3-1.5-1-1.9-1.9-.2-.4-.4-.9-.5-1.4-.2-.5-.3-1.2-.4-2.1s-.2-2.1-.2-3.5-.1-3.3-.1-5.6,0-4.1.1-5.6c0-1.4.1-2.6.2-3.5s.2-1.6.4-2.1c.2-.5.3-1,.5-1.5.4-.9,1.1-1.5,1.9-1.9.8-.3,2-.5,3.6-.5s2.8.2,3.6.5c.8.3,1.4,1,1.9,1.9.2.5.4.9.5,1.5.2.5.3,1.2.4,2.1.1.9.2,2.1.2,3.5.1,1.4.1,3.3.1,5.6s0,4.1-.1,5.6c-.1,1.4-.1,2.6-.2,3.5s-.2,1.6-.4,2.1c-.1.5-.3.9-.5,1.4ZM113.15,72.28c.1-.3.1-.5.2-.9.1-.3.1-.8.1-1.4s0-1.5.1-2.6v-8.7c0-1.1,0-2-.1-2.6,0-.6-.1-1.1-.1-1.4s-.1-.6-.2-.8c-.1-.4-.3-.6-.5-.8s-.6-.2-1.1-.2-.9.1-1.1.2c-.2.1-.4.4-.5.7s-.1.5-.2.8-.1.8-.1,1.4-.1,1.5-.1,2.6v8.7c0,1.1,0,1.9.1,2.6,0,.6.1,1.1.1,1.4.1.3.1.6.2.9.1.4.3.6.5.7s.6.2,1.1.2.8-.1,1.1-.2.4-.3.5-.6Z"/>
  <path class="st4" d="M121.95,77.78v-29.1h7.4c1.1,0,2,.2,2.7.5s1.3.9,1.7,1.6c.4.8.7,1.8.9,3,.2,1.3.2,2.8.2,4.7s-.1,3.4-.2,4.7c-.2,1.3-.5,2.3-.9,3.1-.4.8-1,1.4-1.7,1.7-.7.4-1.6.5-2.7.5h-2.6v9.3s-4.8,0-4.8,0ZM128.55,63.98c.3,0,.5-.1.7-.3s.4-.5.5-.9.2-1,.3-1.7.1-1.6.1-2.7c0-1,0-1.9-.1-2.5-.1-.7-.2-1.2-.3-1.5-.1-.4-.3-.6-.5-.7-.2-.1-.5-.2-.8-.2h-1.7v10.6l1.8-.1h0Z"/>
  <path class="st4" d="M90.35,113.68v-29.1h7.3c1.1,0,2,.1,2.7.4s1.3.7,1.8,1.3c.4.6.8,1.4,1,2.4s.3,2.2.3,3.7c0,1.1,0,2-.1,2.7s-.2,1.3-.3,1.7c-.2.4-.3.8-.6,1-.2.2-.5.5-.8.7v.3c.4.2.7.5,1,.7s.5.6.7,1,.3,1.1.4,1.9.1,2,.1,3.4c0,1.5-.1,2.7-.3,3.7-.2,1-.5,1.8-.9,2.4s-1,1-1.7,1.3-1.6.4-2.7.4l-7.9.1h0ZM96.95,96.98c.3,0,.6-.1.8-.2.2-.1.4-.3.5-.6.1-.3.2-.7.3-1.2.1-.5.1-1.2.1-2,0-.9,0-1.7-.1-2.2s-.2-.9-.3-1.2c-.1-.3-.3-.4-.5-.5s-.5-.1-.8-.1h-1.9v7.9l1.9.1h0ZM97.25,109.08c.3,0,.6-.1.8-.2.2-.1.4-.3.5-.6.1-.3.2-.7.3-1.2.1-.5.1-1.1.1-1.9,0-.9,0-1.7-.1-2.3-.1-.6-.2-1-.3-1.4-.1-.3-.3-.6-.5-.7s-.5-.2-.8-.2h-2.1v8.3h2.1s0,.2,0,.2Z"/>
  <path class="st4" d="M107.25,113.68v-29.1h10.9v4.8h-6.2v7.1h6.1v4.6h-6.1v7.5h6.2v5l-10.9.1h0Z"/>
  <path class="st4" d="M130.35,113.68l-.6-7.3h-3l-.6,7.3h-4.7l3-29.1h7.9l2.8,29.1h-4.8ZM128.45,89.38h-.3l-1.2,12.4h2.6l-1.1-12.4Z"/>
  <path class="st4" d="M150.95,102.48c.1.4.1.7.1,1.1v1.5c0,1.5-.1,2.9-.2,4-.2,1.1-.5,2.1-.9,2.8-.5.7-1.1,1.3-1.9,1.7s-1.9.6-3.2.6c-1.6,0-2.9-.2-3.7-.5s-1.5-1-1.9-1.9c-.2-.4-.4-.9-.5-1.5-.2-.6-.3-1.3-.4-2.3-.1-.9-.2-2.1-.2-3.6s-.1-3.3-.1-5.6,0-4.3.1-5.8.1-2.6.2-3.5c.1-.9.2-1.5.4-2,.2-.4.3-.8.5-1.2.4-.9,1-1.5,1.8-1.8s2-.5,3.6-.5c1.5,0,2.6.1,3.3.4.8.3,1.4.7,1.8,1.3.9,1.3,1.3,3.6,1.3,7v1.4c0,.3,0,.6-.1,1h-4.5v-2c0-.9,0-1.6-.1-2.3-.1-.6-.2-1.1-.3-1.4s-.3-.4-.5-.6c-.2-.1-.5-.2-1-.2s-.9.1-1.1.2c-.2.1-.4.4-.5.7-.1.3-.1.5-.2.9-.1.3-.1.8-.1,1.4s-.1,1.5-.1,2.6v8.5c0,1.1,0,2,.1,2.6,0,.7.1,1.2.1,1.5.1.3.1.6.2.9.1.4.3.6.5.7s.6.2,1.2.2c.8,0,1.3-.4,1.5-1.1.1-.5.2-1.1.2-1.8s.1-1.5.1-2.6v-1.1h4.5v.3h0Z"/>
  <path class="st4" d="M163.75,113.68v-12.6h-4.1v12.6h-4.8v-29.1h4.8v11.9h4.1v-11.9h4.8v29.1h-4.8Z"/>
  <path class="st6" d="M175.15,113.68l-3.2-29.1h5.1c.3,3.3.5,6,.7,8.4.2,2.3.4,4.3.5,5.9s.2,2.9.3,3.9.1,1.8.2,2.4c0,.6.1,1,.1,1.3v.8h.3v-.8c0-.3.1-.8.1-1.3,0-.6.1-1.4.2-2.4.1-1,.2-2.3.3-3.9s.3-3.5.5-5.9c.2-2.3.4-5.1.7-8.4h5l-3.4,29.1h-7.4Z"/>
  <path class="st6" d="M200.65,111.78c-.4.9-1.1,1.5-1.9,1.9-.8.3-2,.5-3.6.5s-2.8-.2-3.6-.5-1.5-1-1.9-1.9c-.2-.4-.4-.9-.5-1.4-.2-.5-.3-1.2-.4-2.1-.1-.9-.2-2.1-.2-3.5s-.1-3.3-.1-5.6,0-4.1.1-5.6c0-1.4.1-2.6.2-3.5.1-.9.2-1.6.4-2.1s.3-1,.5-1.5c.4-.9,1.1-1.5,1.9-1.9.8-.3,2-.5,3.6-.5s2.8.2,3.6.5,1.4,1,1.9,1.9c.2.5.4.9.5,1.5.2.5.3,1.2.4,2.1.1.9.2,2.1.2,3.5.1,1.4.1,3.3.1,5.6s0,4.1-.1,5.6c-.1,1.4-.1,2.6-.2,3.5-.1.9-.2,1.6-.4,2.1-.1.5-.3,1-.5,1.4ZM196.85,108.18c.1-.3.1-.5.2-.9.1-.3.1-.8.1-1.4s0-1.5.1-2.6v-8.7c0-1.1,0-2-.1-2.6,0-.6-.1-1.1-.1-1.4s-.1-.6-.2-.8c-.1-.4-.3-.6-.5-.8-.2-.2-.6-.2-1.1-.2s-.9.1-1.1.2c-.2.1-.4.4-.5.7-.1.3-.1.5-.2.8-.1.3-.1.8-.1,1.4s-.1,1.5-.1,2.6v8.7c0,1.1,0,1.9.1,2.6,0,.6.1,1.1.1,1.4.1.3.1.6.2.9.1.4.3.6.5.7s.6.2,1.1.2.8-.1,1.1-.2c.2,0,.4-.3.5-.6Z"/>
  <path class="st6" d="M205.65,113.68v-29.1h4.7v24h5.7v5l-10.4.1h0Z"/>
  <path class="st6" d="M219.45,113.68v-29.1h4.7v24h5.7v5l-10.4.1h0Z"/>
  <path class="st6" d="M233.25,113.68v-29.1h10.9v4.8h-6.2v7.1h6.1v4.6h-6.1v7.5h6.2v5l-10.9.1h0Z"/>
  <path class="st6" d="M251.75,113.68v-11.6l-4.7-17.3v-.2h4.8c.5,2,.8,3.7,1.1,4.9.3,1.2.5,2.2.6,2.9.2.7.3,1.2.3,1.6.1.3.1.6.1.9h.3c0-.2.1-.5.1-.9.1-.3.2-.9.3-1.6.2-.7.4-1.7.7-2.9.3-1.2.7-2.9,1.1-4.9h4.7v.2l-4.5,17.2v11.7h-4.9Z"/>
  <path class="st15" d="M264.55,113.68v-29.1h7.3c1.1,0,2,.1,2.7.4s1.3.7,1.8,1.3c.4.6.8,1.4,1,2.4s.3,2.2.3,3.7c0,1.1,0,2-.1,2.7s-.2,1.3-.3,1.7c-.2.4-.3.8-.6,1-.2.2-.5.5-.8.7v.3c.4.2.7.5,1,.7s.5.6.7,1,.3,1.1.4,1.9.1,2,.1,3.4c0,1.5-.1,2.7-.3,3.7-.2,1-.5,1.8-.9,2.4s-1,1-1.7,1.3-1.6.4-2.7.4l-7.9.1h0ZM271.15,96.98c.3,0,.6-.1.8-.2.2-.1.4-.3.5-.6.1-.3.2-.7.3-1.2.1-.5.1-1.2.1-2,0-.9,0-1.7-.1-2.2s-.2-.9-.3-1.2c-.1-.3-.3-.4-.5-.5s-.5-.1-.8-.1h-1.9v7.9l1.9.1h0ZM271.45,109.08c.3,0,.6-.1.8-.2.2-.1.4-.3.5-.6.1-.3.2-.7.3-1.2.1-.5.1-1.1.1-1.9,0-.9,0-1.7-.1-2.3-.1-.6-.2-1-.3-1.4-.1-.3-.3-.6-.5-.7s-.5-.2-.8-.2h-2.1v8.3h2.1s0,.2,0,.2Z"/>
  <path class="st15" d="M289.35,113.68l-.6-7.3h-3l-.6,7.3h-4.7l3-29.1h7.9l2.8,29.1h-4.8,0ZM287.45,89.38h-.3l-1.2,12.4h2.6l-1.1-12.4Z"/>
  <path class="st6" d="M297.65,113.68v-29.1h4.7v24h5.7v5l-10.4.1h0Z"/>
  <path class="st4" d="M98.45,149.58l-.6-7.3h-3l-.6,7.3h-4.7l3-29.1h7.9l2.8,29.1h-4.8ZM96.55,125.28h-.3l-1.2,12.4h2.6s-1.1-12.4-1.1-12.4Z"/>
  <path class="st4" d="M119.05,138.48c.1.4.1.7.1,1.1v1.5c0,1.5-.1,2.9-.2,4-.2,1.1-.5,2.1-.9,2.8s-1.1,1.3-1.9,1.7-1.9.6-3.2.6c-1.6,0-2.9-.2-3.7-.5-.8-.3-1.5-1-1.9-1.9-.2-.4-.4-.9-.5-1.5-.2-.6-.3-1.3-.4-2.3-.1-.9-.2-2.1-.2-3.6s-.1-3.3-.1-5.6,0-4.3.1-5.8.1-2.6.2-3.5.2-1.5.4-2c.2-.4.3-.8.5-1.2.4-.9,1-1.5,1.8-1.8s2-.5,3.6-.5c1.5,0,2.6.1,3.3.4.8.3,1.4.7,1.8,1.3.9,1.3,1.3,3.6,1.3,7v1.4c0,.3,0,.6-.1,1h-4.5v-2c0-.9,0-1.6-.1-2.3-.1-.6-.2-1.1-.3-1.4-.1-.3-.3-.4-.5-.6-.2-.1-.5-.2-1-.2s-.9.1-1.1.2-.4.4-.5.7-.1.5-.2.9c-.1.3-.1.8-.1,1.4s-.1,1.5-.1,2.6v8.5c0,1.1,0,2,.1,2.6,0,.7.1,1.2.1,1.5.1.3.1.6.2.9.1.4.3.6.5.7.2.1.6.2,1.2.2.8,0,1.3-.4,1.5-1.1.1-.5.2-1.1.2-1.8s.1-1.5.1-2.6v-1.1h4.5v.3h0Z"/>
  <path class="st4" d="M130.65,149.58l-.6-7.3h-3l-.6,7.3h-4.7l3-29.1h7.9l2.8,29.1h-4.8ZM128.85,125.28h-.4l-1.2,12.4h2.6l-1-12.4h0Z"/>
  <path class="st4" d="M138.95,149.58v-29.1h6.9c1.6,0,2.8.2,3.6.5s1.4.9,1.9,1.8c.2.4.4.9.6,1.4.1.5.3,1.2.4,2.1.1.9.2,2,.2,3.4s.1,3.2.1,5.4,0,4.1-.1,5.5-.1,2.5-.2,3.4c-.1.9-.2,1.6-.4,2.1s-.3,1-.5,1.4-.5.8-.8,1.1-.7.5-1.1.7c-.4.2-.9.3-1.5.4-.6.1-1.3.1-2.1.1h-7v-.2h0ZM145.75,144.58c.5,0,.9-.1,1.1-.2s.4-.4.5-.7c.1-.2.1-.5.2-.8,0-.3.1-.8.1-1.4s.1-1.4.1-2.5v-8.2c0-1,0-1.9-.1-2.5s-.1-1.1-.1-1.4c-.1-.3-.1-.6-.2-.8-.1-.3-.3-.6-.5-.7s-.6-.2-1.1-.2h-2v19.3l2,.1h0Z"/>
  <path class="st4" d="M156.35,149.58v-29.1h10.9v4.8h-6.2v7.1h6.1v4.6h-6.1v7.5h6.2v5l-10.9.1h0Z"/>
  <path class="st4" d="M186.45,149.58v-20.1h-.2c-.1.5-.1,1-.2,1.6-.1.5-.2,1.1-.3,1.6l-3.6,16.9h-2.1l-3.7-17c-.1-.5-.2-1-.3-1.5s-.2-1.1-.2-1.6h-.2v20.1h-4.3v-29.1h7l1.9,10.5c.2.9.3,1.7.4,2.4.1.6.2,1.3.3,1.9h.2c.1-.6.2-1.3.3-1.9.1-.6.3-1.4.4-2.4l2-10.5h6.9v29.1h-4.3,0Z"/>
  <path class="st4" d="M194.85,149.58v-29.1h4.8v29.1h-4.8Z"/>
  <path class="st4" d="M203.95,149.58v-29.1h10.9v4.8h-6.2v7.1h6.1v4.6h-6.1v7.5h6.2v5l-10.9.1h0Z"/>
  <g>
    <g>
      <g class="st21">
        <path class="st5" d="M39.55,46.66s-15.4,11.4-14.1,26.5,10.4,31.02,29.6,31.02,30.8-13.32,30.8-27.4c0-10.4-2.5-20.1-2.5-20.1l13.9,16.4-20.7,39.3-40.1.38-23.4-29.1,13.9-33s12.6-4,12.6-4Z"/>
      </g>
      <path class="st5" d="M55.05,43.56c17.78,0,32.2,13.04,32.2,30.82,0,21.47-14.42,32.2-32.2,32.2s-32.2-13.04-32.2-30.82,14.42-32.2,32.2-32.2Z"/>
    </g>
    <g>
      <g class="st12">
        <path class="st5" d="M26.25,80.56s.2-15.9,18.5-22.6c0,0-20.7,9.4-16.1,28.5,0,0-2.9-2.5-2.4-5.9Z"/>
      </g>
      <path class="st5" d="M55.05,43.56c17.78,0,32.2,13.04,32.2,30.82,0,21.47-14.42,32.2-32.2,32.2s-32.2-13.04-32.2-30.82,14.42-32.2,32.2-32.2Z"/>
    </g>
    <g>
      <g class="st19">
        <path class="st5" d="M59.45,104.98s-16.1-.02-23-7.32c-6.9-7.3-8.5-14.8-8.5-14.8,0,0,4.1,10.4,12.6,15.5,8.6,5.2,18.9,6.62,18.9,6.62Z"/>
      </g>
      <path class="st5" d="M55.05,43.56c17.78,0,32.2,13.04,32.2,30.82,0,21.47-14.42,32.2-32.2,32.2s-32.2-13.04-32.2-30.82,14.42-32.2,32.2-32.2Z"/>
    </g>
    <g>
      <g class="st16">
        <path class="st5" d="M58.35,104.96s18.2-8.38,18.2-23.58c0-8.6-1.6-9.6-1.6-9.6,0,0,2.9,1,2.9,11.2s-6.1,17.68-19.5,21.98Z"/>
      </g>
      <path class="st5" d="M55.05,43.56c17.78,0,32.2,13.04,32.2,30.82,0,21.47-14.42,32.2-32.2,32.2s-32.2-13.04-32.2-30.82,14.42-32.2,32.2-32.2Z"/>
    </g>
    <g>
      <g class="st2">
        <path class="st5" d="M36.25,65.76s12.8,10.8,18.8,13.5,10.3,4.42,21.4,6.32l-.8,1.5s-13.5-1.92-20.9-6.42c-7.3-4.2-18.5-14.9-18.5-14.9Z"/>
      </g>
      <path class="st5" d="M55.05,43.56c17.78,0,32.2,13.04,32.2,30.82,0,21.47-14.42,32.2-32.2,32.2s-32.2-13.04-32.2-30.82,14.42-32.2,32.2-32.2Z"/>
    </g>
    <g>
      <g class="st13">
        <path class="st5" d="M30.15,73.86s14.6,15.6,20.5,18.3c4.4,2,12.9,5,19.3,5.7l-1.3,1.3s-14-2.2-19.7-5.7c-4.8-3-16.8-14.6-18.8-19.6Z"/>
      </g>
      <path class="st5" d="M55.05,43.56c17.78,0,32.2,13.04,32.2,30.82,0,21.47-14.42,32.2-32.2,32.2s-32.2-13.04-32.2-30.82,14.42-32.2,32.2-32.2Z"/>
    </g>
    <g>
      <g class="st0">
        <path class="st5" d="M48.15,58.66s17.9,12.12,28,11.92c0,0-.9,2.2-1.6,2.1-.5,0-21-6.02-26.4-14.02Z"/>
      </g>
      <path class="st5" d="M55.05,43.56c17.78,0,32.2,13.04,32.2,30.82,0,21.47-14.42,32.2-32.2,32.2s-32.2-13.04-32.2-30.82,14.42-32.2,32.2-32.2Z"/>
    </g>
    <g>
      <g class="st1">
        <path class="st5" d="M37.55,48.76s-5.1,11.7-2.6,14.9l-1.6,1.5s-3.4-3.1,4.2-16.4"/>
      </g>
      <path class="st5" d="M55.05,43.56c17.78,0,32.2,13.04,32.2,30.82,0,21.47-14.42,32.2-32.2,32.2s-32.2-13.04-32.2-30.82,14.42-32.2,32.2-32.2Z"/>
    </g>
    <g>
      <g class="st14">
        <path class="st5" d="M28.75,71.66s-3.1-4.6-.8-11c2.3-6.4-3.1,5-3.1,5,0,0,2.1,7.4,2.9,8.1.8.8,1-2.1,1-2.1Z"/>
      </g>
      <path class="st5" d="M55.05,43.56c17.78,0,32.2,13.04,32.2,30.82,0,21.47-14.42,32.2-32.2,32.2s-32.2-13.04-32.2-30.82,14.42-32.2,32.2-32.2Z"/>
    </g>
    <g>
      <g class="st8">
        <path class="st5" d="M46.25,58.16l1.9.5s1.1-8.4,10.9-14.8c-9.5,4.5-12.8,14.3-12.8,14.3Z"/>
      </g>
      <path class="st5" d="M55.05,43.56c17.78,0,32.2,13.04,32.2,30.82,0,21.47-14.42,32.2-32.2,32.2s-32.2-13.04-32.2-30.82,14.42-32.2,32.2-32.2Z"/>
    </g>
    <g>
      <g class="st9">
        <path class="st5" d="M64.45,46.96s-8.4,15.1-7.9,17.7,1.1.7,1.1.7l6.8-18.4Z"/>
      </g>
      <path class="st5" d="M55.05,43.56c17.78,0,32.2,13.04,32.2,30.82,0,21.47-14.42,32.2-32.2,32.2s-32.2-13.04-32.2-30.82,14.42-32.2,32.2-32.2Z"/>
    </g>
    <g>
      <g class="st11">
        <path class="st5" d="M63.55,68.16s11.3-12.08,12.8-17.18c-4.3,12.2-12.4,18.68-12.4,18.68,0,0-.4-1.5-.4-1.5Z"/>
      </g>
      <path class="st5" d="M55.05,43.56c17.78,0,32.2,13.04,32.2,30.82,0,21.47-14.42,32.2-32.2,32.2s-32.2-13.04-32.2-30.82,14.42-32.2,32.2-32.2Z"/>
    </g>
    <g>
      <g class="st17">
        <path class="st10" d="M74.95,70.58s5.1-8.2,5.5-12.4c.1,6.5-5,13.9-5,13.9l-.5-1.5Z"/>
      </g>
      <path class="st5" d="M55.05,43.56c17.78,0,32.2,13.04,32.2,30.82,0,21.47-14.42,32.2-32.2,32.2s-32.2-13.04-32.2-30.82,14.42-32.2,32.2-32.2Z"/>
    </g>
    <g>
      <g class="st20">
        <path class="st10" d="M77.25,83.58s3.8-1.1,7.1-6.1c-.3,4.1-7.3,8.5-7.3,8.5,0,0,.2-2.4.2-2.4Z"/>
      </g>
      <path class="st5" d="M55.05,43.56c17.78,0,32.2,13.04,32.2,30.82,0,21.47-14.42,32.2-32.2,32.2s-32.2-13.04-32.2-30.82,14.42-32.2,32.2-32.2Z"/>
    </g>
    <g>
      <g class="st18">
        <path class="st5" d="M72.35,94.48s-.5,2.1,7.5-1.9c-7.1,6.5-8.6,4.48-8.6,4.48l1.1-2.58Z"/>
      </g>
      <path class="st5" d="M55.05,43.56c17.78,0,32.2,13.04,32.2,30.82,0,21.47-14.42,32.2-32.2,32.2s-32.2-13.04-32.2-30.82,14.42-32.2,32.2-32.2Z"/>
    </g>
    <path class="st3" d="M55.05,43.56c17.78,0,32.2,13.04,32.2,30.82,0,21.47-14.42,32.2-32.2,32.2s-32.2-13.04-32.2-30.82,14.42-32.2,32.2-32.2Z"/>
  </g>
</svg>