<?xml version="1.0" encoding="UTF-8"?>
<svg id="Laag_1" xmlns="http://www.w3.org/2000/svg" version="1.1" viewBox="0 0 240.6 46.58">
  <defs>
    <style>.st0 { fill: #fff; }</style>
  </defs>
  <path class="st0" d="M61.67,31.52c0,9.71,5.62,15.05,15.23,15.05s15.23-5.34,15.23-15.05V9.82c0-4.15.11-6.36.51-9.26h-13.29c.45,2.73.57,4.71.57,9.26v15.79c0,3.63-.74,5.62-3.01,5.62s-3.01-1.93-3.01-5.62v-15.79c0-4.15.11-6.36.51-9.26h-13.29c.45,2.73.57,4.71.57,9.26v21.7h0Z"/>
  <path class="st0" d="M112.86,14.77h7l-.88-14.2h-24.45l-.88,14.2h7.01v21.98c0,4.32-.11,6.42-.57,9.26h13.26c-.4-3.01-.51-5.23-.51-9.26V14.77h0Z"/>
  <path class="st0" d="M19.19,14.77h7l-.88-14.2H.88l-.88,14.2h7v21.98c0,4.32-.11,6.42-.57,9.26h13.27c-.4-3.01-.51-5.23-.51-9.26V14.77h0Z"/>
  <path class="st0" d="M43.1,0c-10.71,0-16.45,8.01-16.83,23.13.36,14.76,5.37,23.44,17.01,23.44s16.45-8.01,16.83-23.13c-.36-14.8-5.11-23.44-17.01-23.44ZM43.19,31.12c-2.97,0-3.69-3.51-3.69-7.83s.72-7.83,3.69-7.83,3.69,3.5,3.69,7.83-.72,7.83-3.69,7.83Z"/>
  <path class="st0" d="M177.69.57h-13.58c.45,2.84.57,4.94.57,9.26v26.92c0,4.32-.11,6.42-.57,9.26h13.58c-.4-3.01-.51-5.23-.51-9.26V9.83c0-4.03.11-6.25.51-9.26Z"/>
  <path class="st0" d="M240.08,36.76c0,4.03.11,6.25.51,9.26h-9.8c-1.37,0-2.61-.79-3.18-2.03l-8.38-18.08v10.84c0,4.03.11,6.25.51,9.26h-12.15c.45-2.83.56-4.93.56-9.24V8.41c-.03-3.39-.16-5.32-.57-7.83h9.96c1.39,0,2.65.82,3.21,2.1l8.52,19.38v-12.23c0-4.31-.12-6.41-.57-9.24h11.88c-.4,3.01-.51,5.23-.51,9.26v26.92h0Z"/>
  <path class="st0" d="M201.49,18.37l-.53,8.89h-8.59v3.41h14.2l-.57,15.33h-26.69c.45-2.84.57-4.94.57-9.26V9.82c0-4.32-.12-6.42-.57-9.26h26.54l.56,14.2h-14.04v3.86l9.12-.25h0Z"/>
  <path class="st0" d="M154.81,21.51c4.69-1.72,7.16-5.24,7.16-9.98,0-7.1-5.51-10.96-15.68-10.96h-12.78c.45,2.73.57,4.71.57,9.26v26.92c0,4.54-.11,6.53-.57,9.26h12.78c10.85,0,17.1-4.77,17.1-13.92,0-5.7-2.44-9.22-8.58-10.58ZM146.6,11.17c3.03.08,4.6,1.57,4.6,3.13s-1.52,3.17-4.6,3.25v-6.38ZM146.6,33.53v-7.35c3.9.05,5.56,1.14,5.56,3.64s-1.66,3.66-5.56,3.71Z"/>
  <path d="M142.54,12.3c-.35-1.03-.94-1.98-1.76-2.84-.63-.65-1.49-1.24-2.42-1.67-1.13-.52-2.31-.78-3.49-.78s-2.41.28-3.57.84c-1.35.65-2.64,1.68-3.85,3.06-.19.22-.47.35-.76.35s-.57-.13-.76-.35c-1.21-1.38-2.5-2.41-3.85-3.07-1.15-.56-2.35-.84-3.57-.84s-2.36.26-3.49.78c-.93.43-1.79,1.02-2.42,1.67-.83.85-1.42,1.81-1.76,2.84-.38,1.14-.47,2.4-.26,3.77.48,3.25,2.61,7.11,6.32,11.47,1.36,1.6,2.55,3.01,3.6,4.25.42-.49.84-.96,1.23-1.37.1-.1.22-.15.35-.15.25,0,.51.18.52.46.06,1.06.09,2.33.02,3.56,1.08,1.28,1.95,2.29,2.62,3.09.31-.92.67-1.8.99-2.57.08-.19.27-.29.46-.29s.38.09.46.29c.32.76.68,1.65.99,2.57.25-.3,1.3-1.54,2.59-3.05-.07-1.24-.04-2.53.02-3.59.01-.28.27-.46.52-.46.12,0,.25.04.34.15.39.42.82.89,1.25,1.39,1.56-1.84,3.04-3.58,3.62-4.26,3.71-4.37,5.84-8.23,6.32-11.47.2-1.36.12-2.63-.27-3.77h0Z"/>
  <path class="st0" d="M128.48,23.62l-1.81-3.61-1.78,3.61h3.59Z"/>
  <path class="st0" d="M122.49,11.39c-.26-.09-.54-.18-.83-.25-.62-.16-1.26-.25-1.92-.25-1.5,0-3.07.42-4.67,1.25-.69.36-1.3.74-1.81,1.11.18-2.53,2.29-4.53,4.87-4.53,1.9,0,3.54,1.09,4.35,2.67Z"/>
  <path class="st0" d="M133.7,25.9c1.28,0,2.32-1.04,2.32-2.32s-1.04-2.32-2.32-2.32-2.32,1.04-2.32,2.32,1.04,2.32,2.32,2.32Z"/>
  <path class="st0" d="M119.64,25.9c1.28,0,2.32-1.04,2.32-2.32s-1.04-2.32-2.32-2.32-2.32,1.04-2.32,2.32,1.04,2.32,2.32,2.32Z"/>
  <path class="st0" d="M130.88,11.39c.26-.09.54-.18.82-.25.62-.16,1.26-.25,1.92-.25,1.5,0,3.07.42,4.67,1.25.69.36,1.3.74,1.81,1.11-.18-2.53-2.29-4.53-4.87-4.53-1.9,0-3.54,1.09-4.35,2.67Z"/>
  <path class="st0" d="M126.69,30.58c1.54,0,2.86-1.02,3.29-2.43h-6.58c.43,1.41,1.74,2.43,3.29,2.43h0Z"/>
  <path class="st0" d="M137.24,14.7c-.07-.04-.14-.08-.21-.11-.59-.31-1.16-.53-1.71-.69-.49,1.35-1.79,2.32-3.32,2.32-.93,0-1.78-.36-2.41-.95-.68.58-1.11,1.19-1.37,1.65.87.52,2.59,1.34,4.77,1.34.31,0,.63-.02.94-.05,1.32-.15,2.44-.58,3.31-1.08v-2.42h0Z"/>
  <path d="M127.37,17.51c.81.53,2.88,1.7,5.62,1.7.34,0,.69-.02,1.04-.06,3.14-.34,5.17-2.14,5.96-2.97.21-.23.19-.58-.05-.78-.97-.81-3.53-2.71-6.3-2.71-.48,0-.97.06-1.46.19-3.17.84-4.55,3.02-5,3.95-.12.24-.04.53.19.69ZM128.22,16.91c.26-.45.69-1.06,1.37-1.64.63.59,1.48.95,2.41.95,1.52,0,2.82-.97,3.32-2.32.55.16,1.12.39,1.71.69.07.04.15.08.21.11v2.42c-.88.5-1.98.93-3.31,1.08-.31.03-.63.05-.94.05-2.18,0-3.9-.82-4.77-1.34h0Z"/>
  <path class="st0" d="M116.1,14.7c.07-.04.14-.08.22-.11.59-.31,1.16-.53,1.71-.69.49,1.35,1.79,2.32,3.31,2.32.93,0,1.78-.36,2.41-.95.68.58,1.11,1.19,1.37,1.65-.87.52-2.59,1.34-4.77,1.34-.31,0-.63-.02-.94-.05-1.33-.15-2.44-.58-3.31-1.08v-2.42h0Z"/>
  <path d="M126.16,16.83c-.45-.92-1.82-3.1-5-3.95-.49-.13-.98-.19-1.46-.19-2.78,0-5.33,1.9-6.3,2.71-.24.2-.26.56-.05.78.78.83,2.82,2.63,5.96,2.97.35.04.7.06,1.04.06,2.74,0,4.81-1.16,5.62-1.7.23-.15.31-.44.19-.69ZM120.35,18.25c-.31,0-.63-.02-.94-.05-1.32-.15-2.44-.58-3.31-1.08v-2.42c.07-.04.14-.08.21-.11.59-.31,1.16-.53,1.71-.69.49,1.35,1.79,2.32,3.31,2.32.93,0,1.78-.36,2.41-.95.68.58,1.11,1.19,1.37,1.64-.87.52-2.59,1.34-4.77,1.34h0Z"/>
  <path d="M126.67,20l1.81,3.61h-3.59l1.78-3.61M126.67,18.48c-.18,0-.35.09-.44.28l-2.52,5.11c-.16.33.08.72.44.72h5.08c.37,0,.61-.39.44-.72l-2.56-5.11c-.09-.18-.27-.27-.44-.27h0Z"/>
  <path d="M130.63,26.03h-7.88c-.25,0-.45.2-.45.45v.66c0,2.43,1.97,4.39,4.39,4.39s4.39-1.97,4.39-4.39v-.66c0-.25-.2-.45-.45-.45h0ZM126.69,30.58c-1.54,0-2.85-1.02-3.29-2.43h6.58c-.43,1.41-1.74,2.43-3.29,2.43h0Z"/>
  <path class="st0" d="M142.86,5.83c-2.68-2.76-9.72-5.77-16.17,1.67-6.45-7.44-13.5-4.43-16.17-1.67-3.87,3.99-4.36,10.58,4.65,21.19,1.82,2.14,3.37,3.97,4.69,5.53-1.98,2.49-3.53,5.39-.76,6.41.36.13.68.19.97.19,1.47,0,2.14-1.56,2.42-3.5,1.01,1.19,1.8,2.12,2.4,2.84-.76,2.68-.83,5.25,1.8,5.25s2.55-2.57,1.8-5.25c.6-.71,1.38-1.63,2.38-2.8.28,1.92.94,3.46,2.41,3.46.29,0,.61-.06.97-.19,2.77-1.01,1.23-3.9-.74-6.38,1.33-1.56,2.88-3.4,4.71-5.55,9.02-10.61,8.52-17.21,4.65-21.19h0ZM121.6,34.97c-.06.61-.15,1.1-.25,1.5l-1.75-1.09-.39-.24c.11-.2.24-.41.39-.64.51-.78,1.19-1.65,2.07-2.64.03,1.21,0,2.24-.08,3.11ZM125.4,40.8c.03-.38.1-.85.24-1.42.21-.9.56-1.95,1.05-3.19.49,1.23.83,2.28,1.05,3.19.13.57.21,1.03.24,1.42h-2.57,0ZM133.73,34.51c.15.23.28.44.39.64l-.38.24-1.75,1.09c-.1-.4-.19-.89-.25-1.5-.09-.87-.12-1.9-.08-3.11.88.99,1.57,1.86,2.07,2.64ZM132.86,31.8c-.43-.5-.86-.97-1.25-1.39-.1-.1-.22-.15-.34-.15-.25,0-.51.18-.52.46-.05,1.07-.09,2.36-.02,3.6-1.07,1.26-1.92,2.26-2.59,3.05-.31-.92-.67-1.8-.99-2.57-.08-.19-.27-.29-.46-.29s-.38.09-.46.29c-.32.76-.68,1.65-.99,2.57-.68-.8-1.54-1.82-2.62-3.09.07-1.23.03-2.5-.02-3.56-.01-.28-.27-.46-.52-.46-.13,0-.25.04-.35.15-.39.41-.81.88-1.23,1.37-1.05-1.24-2.24-2.64-3.6-4.24-3.71-4.37-5.84-8.23-6.32-11.47-.2-1.36-.12-2.63.26-3.77.35-1.03.94-1.98,1.76-2.84.63-.65,1.49-1.24,2.42-1.67,1.13-.52,2.31-.78,3.49-.78s2.42.28,3.57.84c1.35.65,2.64,1.68,3.85,3.07.19.22.46.34.76.34s.57-.13.76-.34c1.21-1.38,2.5-2.41,3.85-3.06,1.15-.56,2.35-.84,3.57-.84s2.36.26,3.49.78c.93.43,1.79,1.02,2.42,1.67.83.85,1.42,1.81,1.76,2.84.38,1.14.47,2.4.26,3.77-.48,3.25-2.61,7.11-6.32,11.47-1.36,1.61-2.57,3.02-3.62,4.26h0Z"/>
  <path class="st0" d="M127.73,39.39c-.21-.9-.56-1.95-1.05-3.19-.49,1.23-.83,2.28-1.05,3.19-.13.57-.21,1.03-.24,1.42h2.56c-.03-.38-.1-.85-.24-1.42Z"/>
  <path class="st0" d="M133.73,34.51c-.51-.78-1.19-1.65-2.07-2.64-.03,1.21,0,2.24.08,3.11.06.61.15,1.1.25,1.5l1.75-1.09.38-.24c-.11-.2-.24-.41-.39-.64Z"/>
  <path class="st0" d="M119.61,34.51c.51-.78,1.19-1.65,2.07-2.64.03,1.21,0,2.24-.08,3.11-.06.61-.15,1.1-.25,1.5l-1.75-1.09-.39-.24c.11-.2.24-.41.39-.64Z"/>
</svg>
