<?xml version="1.0" encoding="UTF-8"?>
<svg xmlns="http://www.w3.org/2000/svg" viewBox="0 0 385.75 96.27">
  <defs>
    <style>
      .cls-1 {
        fill: #fff;
      }
    </style>
  </defs>
  <g id="Layer_1" data-name="Layer 1">
    <g>
      <path class="cls-1" d="M48.62,7.28h-14.57l-10.84,51.16H3.73L14.57,7.28H0L1.52,0h48.62l-1.52,7.28Z"/>
      <path class="cls-1" d="M81.12,18.13h-17.53l-8.64,40.32h-18.04l8.39-39.47c.45-2.14,1.51-3.9,3.18-5.25,1.66-1.36,3.57-2.03,5.72-2.03h28.29l-1.35,6.44Z"/>
      <path class="cls-1" d="M115.48,58.44h-36.51c-2.77,0-4.81-.83-6.14-2.5-1.33-1.66-1.68-3.88-1.06-6.65l3.64-17.36c.45-2.15,1.5-3.9,3.13-5.25,1.64-1.36,3.53-2.03,5.67-2.03h20.5l1.44-6.52h-18.8l1.35-6.44h29.48c2.15,0,3.74.68,4.79,2.03,1.04,1.36,1.34,3.11.89,5.25l-8.39,39.47ZM93.63,31.17l-4.49,20.84h9.74l4.49-20.84h-9.74Z"/>
      <path class="cls-1" d="M140.53,58.44h-18.04l9.91-46.75h18.04l-9.91,46.75ZM151.54,6.44h-18.04l1.35-6.44h18.04l-1.35,6.44Z"/>
      <path class="cls-1" d="M193.7,58.44h-17.96l8.64-40.32h-9.74l-8.64,40.32h-18.04l9.99-46.75h38.45c2.14,0,3.74.68,4.79,2.03s1.34,3.11.89,5.25l-8.39,39.47Z"/>
      <path class="cls-1" d="M208.25,18.97c.45-2.14,1.51-3.9,3.18-5.25,1.66-1.36,3.57-2.03,5.72-2.03h31.17c2.15,0,3.74.68,4.79,2.03,1.04,1.36,1.34,3.11.89,5.25l-5.59,26.6h-27.7l-1.44,6.44h27.7l-1.36,6.44h-36.59c-2.77,0-4.82-.83-6.14-2.5-1.33-1.66-1.68-3.88-1.06-6.65l6.44-30.32ZM226.54,18.13l-4.49,20.84h9.74l4.49-20.84h-9.74Z"/>
      <path class="cls-1" d="M297.01,18.13h-17.53l-8.64,40.32h-18.04l8.39-39.47c.45-2.14,1.51-3.9,3.18-5.25,1.67-1.36,3.57-2.03,5.72-2.03h28.29l-1.36,6.44Z"/>
      <path class="cls-1" d="M335.86,31.76c2.14,0,3.74.68,4.79,2.03,1.04,1.35,1.34,3.11.89,5.25l-2.12,10.25c-.56,2.77-1.88,4.98-3.94,6.65-2.06,1.67-4.45,2.5-7.16,2.5h-27.53c-2.77,0-4.81-.83-6.14-2.5-1.33-1.66-1.68-3.88-1.06-6.65l1.02-4.49h18.04l-1.61,7.2h9.74l2.96-13.81h-18.63c-2.77,0-4.82-.83-6.14-2.5-1.33-1.67-1.68-3.88-1.06-6.65l2.12-10.08c.45-2.14,1.51-3.9,3.18-5.25,1.67-1.36,3.57-2.03,5.72-2.03h31.17c2.15,0,3.74.68,4.79,2.03,1.04,1.36,1.34,3.11.89,5.25l-1.35,6.35h-17.96l1.61-7.2h-9.74l-2.96,13.64h20.5Z"/>
    </g>
  </g>
  <g id="_Layer_" data-name="&amp;lt;Layer&amp;gt;">
    <g>
      <path class="cls-1" d="M151.07,73.42l1.72,15.72,8.04-15.72h7.1l-4.57,22.66h-5.35l1.12-5.56,2.6-10.24-8.39,15.8h-3.53l-2.1-16.39-1.75,11.36-1.03,5.03h-5.32l4.57-22.66h6.91Z"/>
      <path class="cls-1" d="M183.42,91.85h-7.24l-2.13,4.23h-5.87l12.65-22.66h5.01l3.54,22.66h-5.54l-.42-4.23ZM178.3,87.63h4.7l-.77-7.81-3.93,7.81Z"/>
      <path class="cls-1" d="M213.21,77.64h-6.6l-3.71,18.44h-5.34l3.73-18.44h-6.49l.87-4.22h18.4l-.85,4.22Z"/>
      <path class="cls-1" d="M230.32,86.46h-8.33l-1.1,5.42h9.85l-.85,4.2h-15.17l4.57-22.66h15.21l-.85,4.22h-9.87l-.98,4.78h8.34l-.82,4.05Z"/>
      <path class="cls-1" d="M244.96,88.07h-2.96l-1.63,8.02h-5.32l4.57-22.66,8,.02c2.56,0,4.52.6,5.87,1.79,1.35,1.2,1.92,2.83,1.72,4.91-.16,1.64-.67,2.99-1.53,4.07-.86,1.07-2.05,1.92-3.56,2.54l2.79,9.07v.27h-5.69l-2.26-8.02ZM242.84,83.86l3.11.03c.85,0,1.6-.21,2.24-.62s1.11-.99,1.4-1.71c.29-.72.39-1.42.29-2.1-.17-1.16-.89-1.76-2.16-1.83l-3.61-.02-1.27,6.24Z"/>
      <path class="cls-1" d="M263.93,96.08h-5.32l4.58-22.66h5.31l-4.57,22.66Z"/>
      <path class="cls-1" d="M284.3,91.85h-7.24l-2.13,4.23h-5.87l12.64-22.66h5.01l3.54,22.66h-5.54l-.42-4.23ZM279.17,87.63h4.7l-.77-7.81-3.93,7.81Z"/>
      <path class="cls-1" d="M308.38,91.85h-7.24l-2.13,4.23h-5.87l12.64-22.66h5.01l3.54,22.66h-5.54l-.42-4.23ZM303.26,87.63h4.7l-.77-7.81-3.93,7.81Z"/>
      <path class="cls-1" d="M325.21,91.88h9.23l-.85,4.2h-14.55l4.57-22.66h5.34l-3.73,18.46Z"/>
    </g>
    <g>
      <path class="cls-1" d="M341.36,92.81c.51-.01.92.15,1.25.47.32.32.47.74.45,1.25-.03.51-.21.92-.55,1.24-.34.32-.76.49-1.26.51-.5.02-.9-.12-1.22-.43-.31-.31-.46-.71-.45-1.22.01-.51.19-.93.52-1.27.33-.34.75-.52,1.26-.54Z"/>
      <path class="cls-1" d="M347.93,96.08l4.58-22.66,6.65.02c2.31,0,4.03.52,5.15,1.56,1.12,1.04,1.58,2.49,1.39,4.34-.25,2.17-1.66,3.8-4.23,4.9,1,.39,1.75,1.07,2.22,2.02.48.96.65,2.01.52,3.16-.21,2.04-1.08,3.67-2.6,4.86-1.52,1.2-3.45,1.8-5.81,1.8h-7.88ZM352.99,85.48l-1.65,8.14,4.62.02c1.41,0,2.6-.38,3.58-1.13.98-.75,1.56-1.78,1.75-3.06.18-1.22,0-2.18-.56-2.86-.55-.68-1.44-1.05-2.66-1.09l-5.09-.02ZM353.48,83.09l4.22.02c1.32,0,2.44-.34,3.37-1.01.93-.68,1.49-1.61,1.68-2.79.17-1.1-.03-1.93-.58-2.5-.55-.56-1.48-.87-2.78-.92l-4.45-.02-1.45,7.22Z"/>
      <path class="cls-1" d="M381.91,85.61h-9.53l-1.63,8.03h11.08l-.5,2.44h-13.99l4.58-22.66h13.84l-.51,2.44h-10.91l-1.47,7.3h9.53l-.49,2.44Z"/>
    </g>
  </g>
</svg>