<?xml version="1.0" encoding="UTF-8"?>
<svg id="Laag_1" data-name="Laag 1" xmlns="http://www.w3.org/2000/svg" viewBox="0 0 92.72 33.57">
  <defs>
    <style>
      .cls-1, .cls-2, .cls-3 {
        stroke: #fff;
        stroke-miterlimit: 10;
      }

      .cls-1, .cls-3 {
        fill: #fff;
      }

      .cls-2 {
        fill: none;
      }

      .cls-3 {
        stroke-width: .25px;
      }
    </style>
  </defs>
  <path class="cls-3" d="M24.57,5.83s-2.24-.25-2.16,1.12c.05.89,6.94,19.93,6.94,19.93h.58l4.49-12.12s.64-2.19-1.3-2.24l-1,.02-.02-.81,6.99.03v.79s-1.91.08-2.36,1.42-7.82,19.15-7.82,19.15h-1.96l-6.02-16.04h-.38s-6.17,16.04-6.17,16.04h-2.31L2.46,7.1s-1.03-1.6-2.34-1.46v-.87h9.76v1.08s-2.19-.26-2.07,1.21c.14,1.75,6.84,19.37,6.84,19.37h.66l4.6-11.96-2.83-7.43s-.53-1.52-2.46-1.41l-.02-.85h9.97v.93s0,.13,0,.13Z"/>
  <g>
    <path class="cls-2" d="M50.39,12.78c-3.41,0-7.51,3.08-7.15,9.45.4,5.31,3.54,9.01,6.81,9.26,2.88.22,5.55-2.08,5.55-2.88v-13.44c0-.63-2.43-2.4-5.21-2.4Z"/>
    <path class="cls-1" d="M58.23,7.14l.92-.2-.38.06c-1,.16-2.03.16-3.03-.01l-.28-.05.86.2c.63.14,1.28.15,1.91,0Z"/>
    <path class="cls-3" d="M59.58,31.42c-.19-.22-.29-.49-.29-.78l-.14-23.71-.92.2c-.63.14-1.28.14-1.91,0l-.86-.2v.42c0,1.53.05,5.68.05,5.68,0,.06-.06.1-.12.07-.93-.57-2.82-1.5-5.18-1.59-4.7-.19-7.75,3.07-8.26,3.63-2.73,3.02-2.83,6.56-2.87,7.8-.05,1.66-.13,4.68,2.04,7.27,2.07,2.46,5.18,3.32,7.43,3.22,1.92-.08,4.02-.9,4.39-1.07,1.44-.64,2.58-1.31,2.58-1.31-.05,1.63.71,1.88.71,1.88h4.37l.4-.02v-.45c-.58-.13-1.12-.67-1.44-1.04ZM55.6,28.61c0,.8-2.68,3.1-5.55,2.88-3.28-.25-6.41-3.95-6.81-9.26-.36-6.38,3.74-9.45,7.15-9.45,2.78,0,5.21,1.77,5.21,2.4v13.44Z"/>
    <path class="cls-1" d="M58.77,7l.38-.06.19-1.38s.02-.07.05-.1l5.71-4.96h-6.25l-5.5,4.94,2.11,1.01v.48l.28.05c1,.17,2.02.17,3.03.01Z"/>
  </g>
  <path class="cls-3" d="M66.07,31.25c.78.77,1.45,1.26,1.98,1.71h-5.76v-.79s1.1-1.06,1.57-2.3c.04-.1.47-4.68.47-6.04l.1-10.62.08-6.18c0-.07-.02-.15-.05-.21-.16-.32-.7-1.27-1.76-1.79h6.31l7.87,20.28.62.06,7.19-20.35h6.99c-1.85,1.2-2.07,2.83-2.07,2.83l.47,22.48c.66,1.52,2.53,1.88,2.53,1.88v.66l-9.66-.03v-.55c1.73-.1,2.51-1.67,2.51-1.67l-.36-20.56h-.49l-8.43,22.87h-1.1l-8.68-22.61h-.47c-.09.97-.28,16.92-.32,20.31.07.15.48.58.48.58Z"/>
</svg>
